<?xml version="1.0" encoding="utf-8"?>
<!-- Generator: Adobe Illustrator 24.0.1, SVG Export Plug-In . SVG Version: 6.00 Build 0)  -->
<svg version="1.1" id="图层_1" xmlns="http://www.w3.org/2000/svg" xmlns:xlink="http://www.w3.org/1999/xlink" x="0px" y="0px"
	 viewBox="0 0 48 48" style="enable-background:new 0 0 48 48;" width="48" height="48" xml:space="preserve">
<style type="text/css">
	.st0{fill:#D81E06;}
	.st1{display:none;}
</style>
<g id="图层_1_1_">
	<path class="st0" d="M33.8,28H12.9c-0.2,0-0.4-0.2-0.4-0.3v-3.4c0-0.2,0.2-0.3,0.4-0.3h20.9c0.2,0,0.4,0.2,0.4,0.3v3.4
		C34.2,27.9,34,28,33.8,28z M13.3,27.3h20.2v-2.8H13.3C13.3,24.6,13.3,27.3,13.3,27.3z"/>
	<path class="st0" d="M32.4,26.5c-0.1,0-0.2-0.1-0.2-0.2v-0.6H14.4c-0.1,0-0.2-0.1-0.2-0.2c0-0.1,0.1-0.2,0.2-0.2h18
		c0.1,0,0.2,0.1,0.2,0.2v0.8C32.6,26.4,32.5,26.5,32.4,26.5z M21.1,14.3c-0.6,0-1.2-0.2-1.7-0.6c-0.9-0.8-1-2.2-0.1-3.1
		c0.9-0.9,2.5-0.9,3.4-0.1c0.9,0.8,1,2.2,0.1,3.1C22.4,14.1,21.8,14.3,21.1,14.3z M21.1,10.1c-0.6,0-1.1,0.2-1.5,0.6
		c-0.8,0.8-0.8,1.9,0.1,2.7c0.9,0.7,2.2,0.7,2.9-0.1c0.8-0.8,0.8-1.9-0.1-2.7C22.2,10.3,21.6,10.1,21.1,10.1z"/>
	<path class="st0" d="M20.7,17.3c-0.2,0-0.4-0.1-0.4-0.3l-0.1-0.8c-0.5-0.1-0.9-0.3-1.4-0.5l-0.7,0.6c-0.2,0.1-0.4,0.1-0.5,0
		l-0.9-0.8c-0.1-0.1-0.2-0.3,0-0.5l0.6-0.7c-0.3-0.4-0.5-0.8-0.6-1.2L15.7,13c-0.2,0-0.4-0.2-0.4-0.3v-1.1c0-0.2,0.1-0.3,0.3-0.3
		l0.9-0.1c0.1-0.5,0.3-0.9,0.6-1.3l-0.8-0.5c-0.1-0.1-0.1-0.3,0-0.5L17.3,8c0.1-0.1,0.4-0.1,0.5,0l0.8,0.5C19,8.2,19.4,8,20,7.9
		l0.1-0.8c0-0.2,0.2-0.3,0.4-0.3h1.2c0.2,0,0.4,0.1,0.4,0.3l0,0.7c0.5,0.1,0.9,0.3,1.4,0.5l0.7-0.6c0.2-0.1,0.4-0.1,0.5,0l0.9,0.8
		c0.1,0.1,0.2,0.3,0,0.5L25,9.7c0.3,0.4,0.5,0.8,0.6,1.2l0.9,0.1c0.2,0,0.4,0.2,0.4,0.3v1.1c0,0.2-0.1,0.3-0.3,0.3l-0.9,0.1
		c-0.1,0.5-0.3,0.9-0.6,1.3l0.6,0.6c0.1,0.1,0.1,0.3,0,0.5l-0.8,0.8c-0.1,0.1-0.4,0.1-0.5,0l-0.8-0.5c-0.4,0.3-0.9,0.5-1.4,0.6V17
		c0,0.2-0.2,0.3-0.4,0.3H20.7L20.7,17.3z M18.8,15c0.1,0,0.2,0,0.2,0.1c0.5,0.3,1,0.5,1.6,0.6c0.2,0,0.3,0.1,0.3,0.3l0.1,0.8h0.6
		l0.1-0.8c0-0.2,0.1-0.3,0.3-0.3c0.6-0.1,1.1-0.3,1.6-0.7c0.1-0.1,0.3-0.1,0.5,0l0.7,0.5l0.4-0.4l-0.6-0.6c-0.1-0.1-0.1-0.3,0-0.4
		c0.4-0.5,0.6-0.9,0.7-1.5c0-0.2,0.2-0.3,0.3-0.3l0.9-0.1v-0.5l-0.9-0.1c-0.2,0-0.3-0.1-0.4-0.3c-0.1-0.5-0.4-1-0.7-1.4
		c-0.1-0.1-0.1-0.3,0-0.4l0.6-0.6l-0.4-0.4l-0.7,0.5c-0.1,0.1-0.3,0.1-0.5,0c-0.5-0.3-1-0.5-1.6-0.6c-0.2,0-0.3-0.1-0.3-0.3
		l-0.1-0.8h-0.6L20.7,8c0,0.2-0.1,0.3-0.3,0.3c-0.6,0.1-1.1,0.3-1.6,0.7c-0.1,0.1-0.3,0.1-0.5,0l-0.7-0.5l-0.4,0.4l0.6,0.6
		c0.1,0.1,0.1,0.3,0,0.4c-0.4,0.5-0.6,0.9-0.7,1.5c0,0.2-0.2,0.3-0.3,0.3L16,11.9v0.5l0.9,0.1c0.2,0,0.3,0.1,0.4,0.3
		c0.1,0.5,0.4,1,0.7,1.4c0.1,0.1,0.1,0.3,0,0.4l-0.6,0.6l0.4,0.4l0.7-0.5C18.6,15,18.7,15,18.8,15z M28.5,24c-0.6,0-1.2-0.3-1.5-0.8
		c-0.3-0.4-0.4-0.8-0.3-1.2s0.4-0.8,0.9-1c0.4-0.2,0.9-0.3,1.4-0.2c0.5,0.1,0.9,0.4,1.1,0.7c0.3,0.4,0.4,0.8,0.3,1.2
		c-0.1,0.4-0.4,0.8-0.9,1C29.2,23.9,28.8,24,28.5,24z M27.3,23.1c0.4,0.6,1.3,0.8,2,0.4c0.4-0.2,0.6-0.5,0.7-0.8
		c0.1-0.4,0-0.7-0.2-1c-0.2-0.3-0.6-0.5-0.9-0.6c-0.4-0.1-0.8,0-1.1,0.2c-0.4,0.2-0.6,0.5-0.7,0.8C27,22.4,27,22.8,27.3,23.1z"/>
	<path class="st0" d="M31.6,24.5h-7.2c-0.2,0-0.3-0.1-0.4-0.2c-0.1-0.1,0-0.3,0.1-0.4l0.5-0.3c-0.1-0.4-0.2-0.7-0.2-1.1l-0.7-0.2
		c-0.2-0.1-0.3-0.2-0.3-0.4l0.3-0.9c0-0.2,0.2-0.3,0.4-0.3l0.8,0.1c0.2-0.3,0.4-0.6,0.7-0.9l-0.4-0.6c-0.1-0.2,0-0.3,0.1-0.4
		l0.9-0.5c0.2-0.1,0.4-0.1,0.5,0.1l0.5,0.5c0.4-0.1,0.8-0.2,1.2-0.2l0.2-0.6c0.1-0.2,0.3-0.3,0.4-0.2l1,0.2c0.2,0,0.3,0.2,0.3,0.4
		l-0.1,0.7c0.4,0.2,0.7,0.4,1,0.6l0.7-0.3c0.2-0.1,0.4,0,0.5,0.1l0.6,0.8c0.1,0.2,0.1,0.3-0.1,0.4l-0.6,0.4c0.1,0.4,0.2,0.7,0.2,1.1
		l0.7,0.2c0.2,0.1,0.3,0.2,0.3,0.4l-0.3,0.9c0,0.2-0.2,0.3-0.4,0.3L32,24c-0.1,0.1-0.1,0.2-0.2,0.3C31.8,24.4,31.7,24.5,31.6,24.5z
		 M25.4,23.8h6c0.1-0.1,0.1-0.2,0.2-0.3s0.2-0.2,0.4-0.2l0.7,0.1l0.1-0.4L32,22.8c-0.2-0.1-0.3-0.2-0.3-0.3c0-0.5-0.1-0.9-0.3-1.3
		c-0.1-0.1,0-0.3,0.1-0.4l0.6-0.4l-0.2-0.3l-0.6,0.3c-0.2,0.1-0.4,0-0.5-0.1c-0.4-0.3-0.8-0.6-1.2-0.8c-0.2-0.1-0.3-0.2-0.2-0.4
		l0.1-0.6l-0.4-0.1L29,19c-0.1,0.2-0.2,0.2-0.4,0.2c-0.5,0-0.9,0.1-1.4,0.2c-0.2,0.1-0.4,0-0.4-0.1l-0.4-0.5L26.1,19l0.3,0.5
		c0.1,0.1,0,0.3-0.1,0.4c-0.4,0.3-0.7,0.7-0.9,1.1c-0.1,0.1-0.2,0.2-0.4,0.2l-0.7-0.1l-0.1,0.4l0.7,0.2c0.2,0.1,0.3,0.2,0.3,0.3
		c0,0.5,0.1,0.9,0.3,1.3C25.5,23.6,25.5,23.7,25.4,23.8z M17.9,24c-0.6,0-1.2-0.3-1.5-0.8c-0.3-0.4-0.4-0.8-0.3-1.2
		c0.1-0.4,0.4-0.8,0.9-1c0.4-0.2,0.9-0.3,1.4-0.2c0.5,0.1,0.9,0.4,1.1,0.7c0.6,0.8,0.3,1.8-0.6,2.3C18.7,23.9,18.3,24,17.9,24z
		 M16.7,23.1c0.4,0.6,1.3,0.8,2,0.4c0.7-0.4,0.9-1.2,0.5-1.8c-0.2-0.3-0.6-0.5-0.9-0.6c-0.4-0.1-0.8,0-1.1,0.2
		c-0.4,0.2-0.6,0.5-0.7,0.8C16.4,22.4,16.5,22.8,16.7,23.1z"/>
	<path class="st0" d="M21,24.5h-7.2c-0.2,0-0.3-0.1-0.4-0.2c-0.1-0.1,0-0.3,0.1-0.4l0.5-0.3c-0.1-0.4-0.2-0.7-0.2-1.1l-0.7-0.2
		c-0.2-0.1-0.3-0.2-0.3-0.4l0.3-0.9c0-0.2,0.2-0.3,0.4-0.3l0.8,0.1c0.2-0.3,0.4-0.6,0.7-0.9l-0.4-0.6c-0.1-0.2,0-0.3,0.1-0.4
		l0.9-0.5c0.2-0.1,0.4-0.1,0.5,0.1l0.5,0.5c0.4-0.1,0.8-0.2,1.2-0.2l0.2-0.6c0.1-0.2,0.3-0.3,0.4-0.2l1,0.2c0.2,0,0.3,0.2,0.3,0.4
		l-0.1,0.7c0.4,0.2,0.7,0.4,1,0.6l0.7-0.3c0.2-0.1,0.4,0,0.5,0.1l0.6,0.8c0.1,0.2,0.1,0.3-0.1,0.4l-0.6,0.4c0.1,0.4,0.2,0.7,0.2,1.1
		l0.7,0.2c0.2,0.1,0.3,0.2,0.3,0.4l-0.3,0.9c0,0.2-0.2,0.3-0.4,0.3L21.5,24c-0.1,0.1-0.1,0.2-0.2,0.3C21.3,24.4,21.2,24.5,21,24.5z
		 M14.9,23.8h6c0.1-0.1,0.1-0.2,0.2-0.3c0.1-0.1,0.2-0.2,0.4-0.2l0.7,0.1l0.1-0.4l-0.7-0.2c-0.2-0.1-0.3-0.2-0.3-0.3
		c0-0.5-0.1-0.9-0.3-1.3c-0.1-0.1,0-0.3,0.1-0.4l0.6-0.4l-0.2-0.3l-0.6,0.3c-0.2,0.1-0.4,0-0.5-0.1c-0.4-0.3-0.8-0.6-1.2-0.8
		c-0.2-0.1-0.3-0.2-0.2-0.4l0.1-0.6l-0.4-0.1L18.5,19c-0.1,0.2-0.2,0.2-0.4,0.2c-0.5,0-0.9,0.1-1.4,0.2c-0.2,0.1-0.4,0-0.4-0.1
		l-0.4-0.5L15.5,19l0.3,0.5c0.1,0.1,0,0.3-0.1,0.4c-0.4,0.3-0.7,0.7-0.9,1.1c-0.1,0.1-0.2,0.2-0.4,0.2l-0.7-0.1l-0.1,0.4l0.7,0.2
		c0.2,0.1,0.3,0.2,0.3,0.3c0,0.5,0.1,0.9,0.3,1.3C15,23.6,15,23.7,14.9,23.8z"/>
	<path class="st0" d="M38.6,25.8c1.4-2.5,2.2-5.4,2.2-8.4C40.8,7.7,33,0,23.4,0C13.7,0,6,7.8,6,17.5c0,2.9,0.7,5.8,2.2,8.3
		C11.6,31.5,23.2,48,23.2,48S35.2,31.8,38.6,25.8z M10.2,25.1c-1.4-2.3-2.1-4.9-2.1-7.6C8.2,9,15,2.2,23.4,2.2S38.6,9,38.6,17.5
		c0,2.6-0.7,5.2-2,7.4C33.6,30.1,23.3,44,23.3,44S13.2,29.9,10.2,25.1z"/>
</g>
<g id="图层_2_1_" class="st1">
</g>
</svg>
