<?xml version="1.0" encoding="utf-8"?>
<!-- Generator: Adobe Illustrator 24.0.1, SVG Export Plug-In . SVG Version: 6.00 Build 0)  -->
<svg version="1.1" id="图层_1" xmlns="http://www.w3.org/2000/svg" xmlns:xlink="http://www.w3.org/1999/xlink" x="0px" y="0px"
	 viewBox="0 0 48 48" style="enable-background:new 0 0 48 48;" width="48" height="48" xml:space="preserve">
<style type="text/css">
	.st0{fill:#ADADAD;}
</style>
<path class="st0" d="M34.3,11.7c0.9-0.4,2,0.1,2.3,1c0.1,0.2,0.1,0.4,0.1,0.5v0.1v6.1c0,1-0.8,1.8-1.8,1.8c-0.2,0-0.4,0-0.6-0.1
	h-0.1L30,19.5c-0.5-0.2-0.7-0.7-0.5-1.2c0.2-0.4,0.7-0.7,1.1-0.5h0.1l4.2,1.6v-6.1L30.8,15c-0.5,0.2-1,0-1.2-0.5
	c-0.2-0.4,0-0.9,0.4-1.1h0.1C30.1,13.4,34.3,11.7,34.3,11.7z"/>
<path class="st0" d="M29.6,8.4H15.2c-1,0-1.8,0.8-1.8,1.8v12.5c0,1,0.8,1.8,1.8,1.8h14.4c1,0,1.8-0.8,1.8-1.8V10.2
	C31.4,9.2,30.6,8.4,29.6,8.4z M15.2,10.2h14.4v12.5H15.2V10.2z"/>
<path class="st0" d="M18,23.6c0.2-0.4,0.8-0.6,1.2-0.4c0.4,0.2,0.6,0.7,0.4,1.1v0.1l-2.2,4.5c-0.2,0.4-0.8,0.6-1.2,0.4
	c-0.4-0.2-0.6-0.7-0.4-1.1v-0.1L18,23.6z M25.6,23.2c0.4-0.2,0.9-0.1,1.2,0.3v0.1l2.2,4.5c0.2,0.4,0,1-0.4,1.2s-0.9,0.1-1.2-0.3
	v-0.1l-2.2-4.5C24.9,24,25.1,23.4,25.6,23.2z"/>
<path class="st0" d="M25.1,19.1V20c0,0.5-0.4,0.9-0.9,0.9h-6.3c-0.5,0-0.9-0.4-0.9-0.9v-0.9H25.1z"/>
<path class="st0" d="M39.2,25.8c1.5-2.5,2.2-5.4,2.2-8.4C41.4,7.8,33.6,0,24,0S6.6,7.8,6.6,17.4c0,2.9,0.7,5.8,2.2,8.3
	c3.4,5.8,15,22.3,15,22.3S35.8,31.8,39.2,25.8z M10.9,25.1c-1.4-2.3-2.1-5-2.1-7.7C8.8,9,15.6,2.2,24,2.2S39.2,9,39.2,17.4
	c0,2.6-0.7,5.2-2,7.4c-3,5.2-13.3,19.1-13.3,19.1S13.9,29.9,10.9,25.1z"/>
</svg>
