<?xml version="1.0" encoding="utf-8"?>
<!-- Generator: Adobe Illustrator 24.0.1, SVG Export Plug-In . SVG Version: 6.00 Build 0)  -->
<svg version="1.1" id="图层_1" xmlns="http://www.w3.org/2000/svg" xmlns:xlink="http://www.w3.org/1999/xlink" x="0px" y="0px"
	 viewBox="0 0 48 48" style="enable-background:new 0 0 48 48;" width="48" height="48" xml:space="preserve">
<style type="text/css">
	.st0{fill:#08D969;}
</style>
<path class="st0" d="M29.7,9.9c-0.3,0-0.5,0-0.8,0.1c-2.1-3-6.5-3.8-9.7-1.8c-1.5,0.9-2.5,2.3-2.9,3.9c-2,0.4-3.4,2.1-3.4,4
	c0,2.2,1.9,4.1,4.3,4.1l0,0h12.4c3,0,5.5-2.3,5.5-5.1C35.2,12.2,32.7,9.9,29.7,9.9z M29.7,18.2H17.3c-1.2,0-2.3-0.9-2.3-2.1
	c0-1,0.7-1.9,1.8-2.1l1.3-0.3l0.3-1.2c0.6-2.5,3.2-4,5.9-3.4c1.2,0.3,2.2,0.9,2.9,1.9l0.7,1l1.3-0.2c0.2,0,0.3,0,0.5,0
	c1.9,0,3.4,1.4,3.4,3.2S31.6,18.2,29.7,18.2L29.7,18.2z M15.4,21.2h1.5v3.9h-1.5V21.2z M19.4,22.4h1.5v3.9h-1.5V22.4z M23.3,24h1.5
	v3.9h-1.5V24z M27.3,22.6h1.5v3.9h-1.5V22.6z M31.2,21.2h1.5v3.9h-1.5V21.2z"/>
<path class="st0" d="M39.2,25.8c1.5-2.5,2.2-5.4,2.2-8.4C41.4,7.8,33.6,0,24,0S6.6,7.8,6.6,17.4c0,2.9,0.7,5.8,2.2,8.3
	c3.3,5.8,15,22.3,15,22.3S35.8,31.8,39.2,25.8z M10.8,25.1c-1.4-2.3-2.1-5-2.1-7.7C8.8,9,15.6,2.2,24,2.2S39.2,9,39.2,17.4
	c0,2.6-0.7,5.2-2,7.4c-2.9,5.3-13.3,19.1-13.3,19.1S13.8,29.9,10.8,25.1z"/>
</svg>
