<?xml version="1.0" encoding="utf-8"?>
<!-- Generator: Adobe Illustrator 24.0.1, SVG Export Plug-In . SVG Version: 6.00 Build 0)  -->
<svg version="1.1" id="图层_1" xmlns="http://www.w3.org/2000/svg" xmlns:xlink="http://www.w3.org/1999/xlink" x="0px" y="0px"
	 viewBox="0 0 48 48" style="enable-background:new 0 0 48 48;" width="48" height="48" xml:space="preserve">
<style type="text/css">
	.st0{fill:#ADADAD;}
</style>
<path class="st0" d="M30.1,10.8c-0.3,0-0.6,0-0.9,0.1c-2.3-3.4-7-4.4-10.4-2c-1.6,1.1-2.7,2.7-3.1,4.5c-2.1,0.5-3.7,2.4-3.7,4.6
	c0,2.6,2.1,4.7,4.7,4.7l0,0h13.4c3.3,0,5.9-2.6,5.9-5.9C36,13.4,33.4,10.8,30.1,10.8z M30.1,20.3H16.7c-1.3,0-2.4-1.1-2.4-2.4
	c0-1.1,0.8-2.1,1.9-2.4l1.4-0.3l0.3-1.4c0.7-2.8,3.5-4.6,6.4-3.9c1.3,0.3,2.4,1.1,3.2,2.2l0.8,1.2l1.4-0.2c0.2,0,0.4,0,0.5,0
	c2,0,3.7,1.6,3.7,3.7S32.1,20.3,30.1,20.3C30.1,20.3,30.1,20.3,30.1,20.3z M14.6,23.8h1.6v4.5h-1.6V23.8z M18.9,25.2h1.6v4.5h-1.6
	V25.2z M23.2,27h1.6v4.5h-1.6V27z M27.5,25.4h1.6v4.5h-1.6V25.4z M31.7,23.8h1.6v4.5h-1.6V23.8z"/>
<path class="st0" d="M39.2,25.8c1.5-2.5,2.2-5.4,2.2-8.4C41.4,7.8,33.6,0,24,0C14.4,0,6.6,7.8,6.6,17.4c0,2.9,0.7,5.8,2.2,8.3
	C12.1,31.5,23.8,48,23.8,48S35.8,31.8,39.2,25.8z M10.9,25.1c-1.4-2.3-2.1-5-2.1-7.7C8.8,9,15.6,2.2,24,2.2
	c8.4,0,15.2,6.8,15.2,15.2c0,2.6-0.7,5.2-2,7.4c-3,5.2-13.3,19.1-13.3,19.1S13.8,29.9,10.9,25.1z"/>
</svg>
