<?xml version="1.0" encoding="utf-8"?>
<!-- Generator: Adobe Illustrator 24.0.1, SVG Export Plug-In . SVG Version: 6.00 Build 0)  -->
<svg version="1.1" id="图层_1" xmlns="http://www.w3.org/2000/svg" xmlns:xlink="http://www.w3.org/1999/xlink" x="0px" y="0px"
	 viewBox="0 0 48 48" style="enable-background:new 0 0 48 48;" width="48" height="48" xml:space="preserve">
<style type="text/css">
	.st0{fill:#08D969;}
</style>
<path class="st0" d="M33,27.5H14.7c-1.3,0-2.3-1-2.3-2.3v-7.9c0-0.6,0.5-1.1,1.1-1.1c0.6,0,1.1,0.5,1.1,1.1v7.9H33v-7.9
	c0-0.6,0.5-1.1,1.1-1.1c0.6,0,1.1,0.5,1.1,1.1v7.9C35.3,26.5,34.3,27.5,33,27.5z M20.4,9.5h-6.9c-0.6,0-1.1-0.5-1.1-1.1
	s0.5-1.1,1.1-1.1h6.9c0.6,0,1.1,0.5,1.1,1.1S21,9.5,20.4,9.5z M18.1,14h-4.6c-0.6,0-1.1-0.5-1.1-1.1c0-0.6,0.5-1.1,1.1-1.1h4.6
	c0.6,0,1.1,0.5,1.1,1.1C19.3,13.5,18.7,14,18.1,14z M29.6,23H18.1c-0.6,0-1.1-0.5-1.1-1.1c0-0.6,0.5-1.1,1.1-1.1h11.5
	c0.6,0,1.1,0.5,1.1,1.1C30.7,22.5,30.2,23,29.6,23z M19.3,18.5h-1.1c-0.6,0-1.1-0.5-1.1-1.1c0-0.6,0.5-1.1,1.1-1.1h1.1
	c0.6,0,1.1,0.5,1.1,1.1C20.4,18,19.9,18.5,19.3,18.5z M26.1,10.4l1.5,1.8c0.9,0.9,1,2.4,0.2,3.4c-0.9,0.9-2.4,0.9-3.4,0
	c-0.9-1-0.8-2.5,0.2-3.4l0.5-0.6L26.1,10.4L26.1,10.4z M26.1,7.2c-0.2,0-0.4,0.1-0.5,0.2c-0.8,0.9-1.9,2.3-2.8,3.3
	c-1.7,2-1.8,4.7,0,6.4c1.8,1.8,4.8,1.8,6.6,0c1.7-1.8,1.7-4.6,0-6.4c-0.9-1.1-2.1-2.5-2.8-3.3C26.5,7.3,26.3,7.2,26.1,7.2L26.1,7.2z
	"/>
<path class="st0" d="M39.2,25.8c1.5-2.5,2.2-5.4,2.2-8.4C41.4,7.8,33.6,0,24,0C14.4,0,6.6,7.8,6.6,17.4c0,2.9,0.7,5.8,2.2,8.3
	C12.1,31.5,23.8,48,23.8,48S35.8,31.8,39.2,25.8z M10.9,25.1c-1.4-2.3-2.1-5-2.1-7.7C8.8,9,15.6,2.2,24,2.2
	c8.4,0,15.2,6.8,15.2,15.2c0,2.6-0.7,5.2-2,7.4c-3,5.2-13.3,19.1-13.3,19.1S13.8,29.9,10.9,25.1z"/>
</svg>
