<?xml version="1.0" encoding="utf-8"?>
<!-- Generator: Adobe Illustrator 24.0.1, SVG Export Plug-In . SVG Version: 6.00 Build 0)  -->
<svg version="1.1" id="图层_1" xmlns="http://www.w3.org/2000/svg" xmlns:xlink="http://www.w3.org/1999/xlink" x="0px" y="0px"
	 viewBox="0 0 48 48" style="enable-background:new 0 0 48 48;" width="48" height="48" xml:space="preserve">
<style type="text/css">
	.st0{fill:#ADADAD;}
</style>
<path class="st0" d="M34,24.8l-1.3-0.7c-0.9-0.5-2-0.5-2.9-0.2l-1.4,0.5c-0.4,0.1-0.8,0.1-1.2,0l-0.8-0.3c-0.6-0.2-1.3-0.2-2-0.1
	l-1.1,0.3c-0.4,0.1-0.7,0.1-1.1-0.1l-0.6-0.2c-1-0.4-2.1-0.3-3,0.2l-0.2,0.1c-0.4,0.2-1,0.3-1.4,0.1c-0.8-0.3-1.7-0.3-2.5,0
	l-0.5,0.2c-0.5,0.2-0.7,0.7-0.5,1.1c0.2,0.5,0.7,0.7,1.2,0.5l0.5-0.2c0.4-0.2,0.8-0.2,1.2,0c0.9,0.3,2,0.3,2.9-0.2l0.2-0.1
	c0.5-0.2,1-0.3,1.5-0.1l0.6,0.2c0.7,0.3,1.4,0.3,2.2,0.1l1.1-0.3c0.3-0.1,0.7-0.1,1,0l0.8,0.3c0.8,0.3,1.6,0.2,2.4,0l1.4-0.5
	c0.5-0.2,1-0.1,1.4,0.1l1.3,0.7c0.1,0.1,0.3,0.1,0.4,0.1c0.3,0,0.6-0.2,0.8-0.5C34.6,25.5,34.4,25,34,24.8z M14.8,23.1l0.5-0.2
	c0.4-0.2,0.8-0.2,1.2,0c1,0.3,2,0.3,2.9-0.2l0.2-0.1c0.5-0.2,1-0.3,1.5-0.1l0.6,0.2c0.7,0.3,1.4,0.3,2.2,0.1l1.1-0.3
	c0.3-0.1,0.7-0.1,1,0l0.8,0.3c0.8,0.3,1.6,0.2,2.4,0l1.4-0.5c0.5-0.2,1-0.1,1.4,0.1l1.3,0.7c0.1,0.1,0.3,0.1,0.4,0.1
	c0.3,0,0.6-0.2,0.8-0.5c0.2-0.4,0.1-1-0.4-1.2L32.7,21c-0.9-0.5-2-0.5-2.9-0.2l-1.4,0.5c-0.4,0.1-0.8,0.1-1.2,0l-0.6-0.2v-4h2.3
	c0.5,0,0.9-0.4,0.9-0.9v-3.4c0-0.5-0.4-0.9-0.9-0.9h-2.3v-1.2l2.1-1.3l1.4,2.2c0.3,0.4,0.8,0.5,1.3,0.3c0.4-0.3,0.6-0.8,0.3-1.2
	L28.7,6c-0.3-0.4-0.8-0.5-1.3-0.3C27,6,26.9,6.5,27.1,6.9c0,0,0,0,0,0l0.6,0.9l-1.1,0.7V6.6c0-0.5-0.4-0.9-0.9-0.9h-3.5
	c-0.5,0-0.9,0.4-0.9,0.9V8h-0.2c-0.5,0-0.9,0.4-0.9,0.9s0.4,0.9,0.9,0.9h0.2v1.7h-0.2c-0.5,0-0.9,0.4-0.9,0.9c0,0.5,0.4,0.9,0.9,0.9
	h0.2v1.7h-0.2c-0.5,0-0.9,0.4-0.9,0.9c0,0.5,0.4,0.9,0.9,0.9h0.2v1.7h-0.2c-0.5,0-0.9,0.4-0.9,0.9c0,0.5,0.4,0.9,0.9,0.9h0.2v0.7
	c-0.8-0.2-1.7-0.1-2.5,0.3l-0.2,0.1c-0.4,0.2-1,0.3-1.4,0.1c-0.8-0.3-1.7-0.3-2.5,0l-0.5,0.2c-0.5,0.2-0.7,0.7-0.5,1.1
	C13.8,23.1,14.4,23.3,14.8,23.1z M28,13.6v1.7h-1.4v-1.7H28z M23.1,7.4h1.7v13.5c-0.1,0-0.2,0-0.3,0.1l-1.1,0.3c-0.1,0-0.2,0-0.3,0
	V7.4z"/>
<path class="st0" d="M39.2,25.8c1.5-2.5,2.2-5.4,2.2-8.4C41.4,7.8,33.6,0,24,0S6.6,7.8,6.6,17.4c0,2.9,0.7,5.8,2.2,8.3
	c3.3,5.8,15,22.3,15,22.3S35.8,31.8,39.2,25.8z M10.9,25.1c-1.4-2.3-2.1-5-2.1-7.7C8.8,9,15.6,2.2,24,2.2S39.2,9,39.2,17.4
	c0,2.6-0.7,5.2-2,7.4c-3,5.2-13.3,19.1-13.3,19.1S13.8,29.9,10.9,25.1z"/>
</svg>
