<?xml version="1.0" encoding="utf-8"?>
<!-- Generator: Adobe Illustrator 24.0.1, SVG Export Plug-In . SVG Version: 6.00 Build 0)  -->
<svg version="1.1" id="图层_1" xmlns="http://www.w3.org/2000/svg" xmlns:xlink="http://www.w3.org/1999/xlink" x="0px" y="0px"
	 viewBox="0 0 48 48" style="enable-background:new 0 0 48 48;" width="48" height="48" xml:space="preserve">
<style type="text/css">
	.st0{fill:#ADADAD;}
</style>
<path class="st0" d="M33,26.8H15c-1.2,0-2.3-0.9-2.3-2v-7c0-0.6,0.5-1,1.1-1s1.1,0.4,1.1,1v7h18v-7c0-0.6,0.5-1,1.1-1s1.1,0.4,1.1,1
	v7C35.3,25.9,34.2,26.8,33,26.8z M20.6,10.8h-6.8c-0.6,0-1.1-0.4-1.1-1s0.5-1,1.1-1h6.8c0.6,0,1.1,0.4,1.1,1S21.2,10.8,20.6,10.8z
	 M18.4,14.8h-4.5c-0.6,0-1.1-0.4-1.1-1s0.5-1,1.1-1h4.5c0.6,0,1.1,0.4,1.1,1C19.5,14.4,19,14.8,18.4,14.8z M29.6,22.8H18.4
	c-0.6,0-1.1-0.4-1.1-1s0.5-1,1.1-1h11.3c0.6,0,1.1,0.4,1.1,1C30.8,22.4,30.2,22.8,29.6,22.8z M19.5,18.8h-1.1c-0.6,0-1.1-0.4-1.1-1
	s0.5-1,1.1-1h1.1c0.6,0,1.1,0.4,1.1,1S20.1,18.8,19.5,18.8z M26.3,11.6l1.5,1.6c0.9,0.8,1,2.1,0.2,3c-0.9,0.8-2.4,0.8-3.3,0
	c-0.9-0.9-0.8-2.2,0.2-3l0.5-0.5L26.3,11.6L26.3,11.6z M26.2,8.8c-0.2,0-0.4,0.1-0.5,0.2c-0.8,0.8-1.9,2-2.7,2.9
	c-1.6,1.8-1.8,4.1,0,5.7c1.8,1.6,4.7,1.6,6.5,0c1.7-1.6,1.7-4.1,0-5.7c-0.9-1-2-2.2-2.8-2.9C26.6,8.9,26.4,8.8,26.2,8.8L26.2,8.8z"
	/>
<path class="st0" d="M39.2,25.8c1.5-2.5,2.2-5.4,2.2-8.4C41.4,7.8,33.6,0,24,0S6.6,7.8,6.6,17.4c0,2.9,0.7,5.8,2.2,8.3
	c3.3,5.8,15,22.3,15,22.3S35.8,31.8,39.2,25.8z M10.9,25.1c-1.4-2.3-2.1-5-2.1-7.7C8.8,9,15.6,2.2,24,2.2S39.2,9,39.2,17.4
	c0,2.6-0.7,5.2-2,7.4c-3,5.2-13.3,19.1-13.3,19.1S13.8,29.9,10.9,25.1z"/>
</svg>
