<?xml version="1.0" encoding="utf-8"?>
<!-- Generator: Adobe Illustrator 24.0.1, SVG Export Plug-In . SVG Version: 6.00 Build 0)  -->
<svg version="1.1" id="图层_1" xmlns="http://www.w3.org/2000/svg" xmlns:xlink="http://www.w3.org/1999/xlink" x="0px" y="0px"
	 viewBox="0 0 48 48" style="enable-background:new 0 0 48 48;" width="48" height="48" xml:space="preserve">
<style type="text/css">
	.st0{fill:#08D969;}
</style>
<path class="st0" d="M35,11.3c1-0.4,2.1,0.1,2.4,1.1c0.1,0.2,0.1,0.4,0.1,0.6v0.1v6.5c0,1.1-0.8,1.9-1.9,1.9c-0.2,0-0.4,0-0.6-0.1
	h-0.1l-4.3-1.7c-0.5-0.2-0.7-0.7-0.5-1.2s0.7-0.7,1.1-0.6h0.1l4.3,1.7v-6.5l-4.3,1.8c-0.5,0.2-1,0-1.2-0.5s0-1,0.5-1.2h0.1
	C30.7,13.1,35,11.3,35,11.3z"/>
<path class="st0" d="M30.1,7.7h-15c-1,0-1.9,0.9-1.9,1.9V23c0,1.1,0.8,1.9,1.9,1.9h15c1,0,1.9-0.9,1.9-1.9V9.6
	C31.9,8.6,31.1,7.7,30.1,7.7z M15.1,9.6h15V23h-15V9.6z"/>
<path class="st0" d="M18,24c0.2-0.5,0.8-0.7,1.3-0.4c0.4,0.2,0.6,0.7,0.4,1.2v0.1l-2.3,4.8c-0.2,0.5-0.8,0.7-1.3,0.4
	c-0.4-0.2-0.6-0.7-0.4-1.2v-0.1L18,24z M25.9,23.6c0.4-0.2,1-0.1,1.2,0.4v0.1l2.3,4.8c0.2,0.5,0,1-0.4,1.3c-0.4,0.2-1,0.1-1.2-0.4
	v-0.1l-2.3-4.8C25.2,24.4,25.4,23.8,25.9,23.6z"/>
<path class="st0" d="M25.4,19.2v1c0,0.5-0.4,1-0.9,1h-6.6c-0.5,0-0.9-0.4-0.9-1v-1H25.4z"/>
<path class="st0" d="M39.2,25.8c1.5-2.5,2.2-5.4,2.2-8.4C41.4,7.8,33.6,0,24,0S6.6,7.8,6.6,17.4c0,2.9,0.7,5.8,2.2,8.3
	c3.3,5.8,15,22.3,15,22.3S35.8,31.8,39.2,25.8z M10.9,25.1c-1.4-2.3-2.1-5-2.1-7.7C8.8,9,15.6,2.2,24,2.2S39.2,9,39.2,17.4
	c0,2.6-0.7,5.2-2,7.4c-3,5.2-13.3,19.1-13.3,19.1S13.8,29.9,10.9,25.1z"/>
</svg>
